PathFileType	4	(X/Y/Z)	38_2_85_p0_0-223_filt_butterworth.trc
DataRate	CameraRate	NumFrames	NumMarkers	Units	OrigDataRate	OrigDataStartFrame	OrigNumFrames
40.0	40.0	4	27	m	40.0	0	223
Frame#	Time	RHip			RKnee			RAnkle			RBigToe			RSmallToe			RHeel			LHip			LKnee			LAnkle			LBigToe			LSmallToe			LHeel			Neck			Head			Nose			RShoulder			RElbow			RWrist			RThumb			RIndex			RPinky			LShoulder			LElbow			LWrist			LThumb			LIndex			LPinky			
		X1	Y1	Z1	X2	Y2	Z2	X3	Y3	Z3	X4	Y4	Z4	X5	Y5	Z5	X6	Y6	Z6	X7	Y7	Z7	X8	Y8	Z8	X9	Y9	Z9	X10	Y10	Z10	X11	Y11	Z11	X12	Y12	Z12	X13	Y13	Z13	X14	Y14	Z14	X15	Y15	Z15	X16	Y16	Z16	X17	Y17	Z17	X18	Y18	Z18	X19	Y19	Z19	X20	Y20	Z20	X21	Y21	Z21	X22	Y22	Z22	X23	Y23	Z23	X24	Y24	Z24	X25	Y25	Z25	X26	Y26	Z26	X27	Y27	Z27	
0	0.0	0.3963262805380453	0.7685684404574538	0.5256385833929413	0.39523306958996035	0.9229090613104358	0.9504921520723018	0.35143806800314237	1.0970875303341066	1.3702299202084116	0.3070236054441841	0.859570694927019	1.4235191661308932	0.3784984832340511	0.9041538277880028	1.437838381453715	0.338286376571848	1.1652289489906695	1.4066634692286484	0.16877510583457472	0.8019149435660886	0.5207271533430052	0.1788488939432112	0.943169659772515	0.9457173999918299	0.18265320717266673	1.0838085689159382	1.329409763133818	0.16607785279546025	0.8863352185977407	1.4122727406609994	0.11069712096826735	0.9202008977128673	1.4058116005820747	0.2038571391114797	1.161266214998624	1.4037562066475717	0.29439726303573166	0.5631402093454612	-0.08195308701088305	0.29868202212946904	0.4699866491385317	-0.3303503541006309	0.2892341968145526	0.4189026090803476	-0.17656793871254328	0.47008854750033885	0.5964448578037842	0.019485193146100806	0.49450664093168994	0.6237636601526024	0.3053333140922349	0.33242279599147323	0.6031172518887278	0.5336302314104419	0.22370234962579927	0.6205005323814965	0.6091338742349036	0.2204343444404489	0.6349517207398385	0.6177647650351021	0.24917806487847086	0.6381940684491936	0.6259942832373212	0.12348910467788632	0.644124834706271	-0.0032791898072155787	0.06841972284824706	0.7037860745524003	0.27397450346741326	0.20219826493085244	0.6643199856347346	0.5180702505790354	0.267623142271184	0.6073125585898556	0.6006225691882096	0.26517308637721543	0.6138208251308603	0.6246080706714277	0.23940709574417987	0.6345913849240366	0.6162523968305502
1	0.025	0.3984440997193588	0.7564793231169508	0.5273843317030726	0.3953298064603842	0.9233036928329229	0.950744385656376	0.3514704160280199	1.0974217969465079	1.3703119799212866	0.3113481091802026	0.8710133837702916	1.427132461332556	0.3786058583359227	0.9038993757978013	1.437694916981136	0.3428847332949076	1.1787952272948594	1.4102889746472413	0.17156275778865854	0.7897526512326439	0.5207479241366325	0.18029094820408514	0.9444587084886175	0.9504091676608437	0.18271078047401781	1.0839710608257718	1.3296301351619566	0.16771956668789417	0.8916250257112683	1.4137975445027087	0.11422476637659484	0.9323209470154254	1.409372541471855	0.20383567815716347	1.1615275811575552	1.4044477337080759	0.2946357671559642	0.5637140048074551	-0.08199581182333253	0.29889792889479977	0.46967196342703177	-0.3305334539286152	0.2891611417711693	0.41863576627880783	-0.17636083193199353	0.4690108243982002	0.6076736355691896	0.017991557013161047	0.49468922193874804	0.6235283613801962	0.30650916625740304	0.33051225301408677	0.5964433870914735	0.5307031871231203	0.22540451128886985	0.607883317103089	0.6020843535446683	0.22263306369879227	0.6234977009963147	0.6173232926533944	0.24589443828314275	0.629212833221895	0.6250446924063703	0.1269215561096334	0.6536108111024946	-0.004674909991263916	0.0713068568267057	0.6950623656587176	0.2766609487249652	0.2062513929718338	0.665764708522042	0.5156140730865864	0.27214222713609315	0.617565934384579	0.5989490058839247	0.26618005051666543	0.6147621494756903	0.6257257730344128	0.24007203019671425	0.6358495802181913	0.6191871178367567
2	0.05	0.3983652181927695	0.7561050804390119	0.5268365595537032	0.395376882968535	0.923480095559162	0.9509086153172912	0.35148470837377727	1.0974557770260474	1.3702956156076014	0.31138943917281847	0.8712392699232276	1.427205432796821	0.3787608263342486	0.9041370851652223	1.437710048872465	0.34456096858170887	1.1836955913561926	1.411621283968027	0.1725864162674553	0.785310377971909	0.5206293840123892	0.1807111142813197	0.9456406648372163	0.9535822410395367	0.1827392938007533	1.0840378210691601	1.3297254277079706	0.16847034951520828	0.8941165265658545	1.4144824107255567	0.11553628731931251	0.9367953684499319	1.4106680522296555	0.20387106912485897	1.1616902987876607	1.4048265508901245	0.2931264144397836	0.5604109506000723	-0.08137241680478993	0.29893939045835793	0.469666040924415	-0.3306115730106266	0.2890845809878725	0.4186402968703071	-0.1763607754881691	0.4685902817981176	0.6118994565554171	0.017411347782763473	0.49478412427808216	0.6234585130140613	0.307089077961351	0.33143771934873123	0.5977409751270815	0.5296564012457238	0.22598044416323518	0.6031707440029737	0.5995478940691451	0.22345167468638386	0.6192166662059821	0.6172622425226548	0.24472207280043404	0.6252089272920924	0.6246262939200617	0.12820504224261614	0.6570961066821117	-0.005216294661338356	0.0732880013022771	0.6866866047326097	0.2754060547230506	0.2077530649891546	0.6664074674713408	0.5146292084093129	0.2723341566010841	0.618565414257472	0.5990382670721733	0.26666570313583043	0.615780060123864	0.6262360316770819	0.24028692009320718	0.6361384112832229	0.620221114291259
3	0.075	0.3968813339224697	0.7643317660010205	0.5265050327291539	0.3954046330413478	0.9233531062203315	0.9508216225792722	0.3514812108372976	1.0973388459061968	1.370250445441049	0.3085531646853875	0.8639099938632386	1.42489304723365	0.37879785774971675	0.9044163381228253	1.4378015063425444	0.344195639885457	1.182583148342673	1.411155454006743	0.17243200379910867	0.786173505031586	0.5206886208053632	0.17947227297555118	0.9460169260836135	0.9545607064300868	0.1827307974253952	1.0839363128465946	1.329721863098176	0.16752627467112874	0.8910116845408436	1.4134453422045052	0.11530928189528813	0.9359626251289492	1.4103645085184615	0.20391546517094086	1.1618408516731302	1.4050614930126442	0.29051180628723894	0.554665665982482	-0.08046881334532219	0.29882660346947243	0.4698692025967137	-0.33057384950242147	0.2890348904811989	0.4186555134481529	-0.17646654296934156	0.4686134827377122	0.6113381871894977	0.01747630480798148	0.4947403773414085	0.6234962798296682	0.30630034225532954	0.33306745090695966	0.6015980064469096	0.5298427459688402	0.22589277890103618	0.6037166450003331	0.5998339063710455	0.223343719383994	0.6198067441833524	0.617384795687102	0.24496512930638398	0.6256620720647728	0.6245742980072311	0.12798401240730367	0.6563637764625866	-0.0051534143458378	0.07459506217244158	0.6788107771527637	0.272525477679251	0.2075349448397532	0.6663296649668233	0.5135701059464347	0.2694011620009771	0.6122492600204354	0.5998630731766128	0.26659993227216255	0.6152993575655068	0.6253570770086735	0.24021093576582125	0.6358938454682376	0.6199298524882684
